<?xml version="1.0" standalone="no"?>
<!DOCTYPE svg PUBLIC "-//W3C//DTD SVG 20010904//EN"
 "http://www.w3.org/TR/2001/REC-SVG-20010904/DTD/svg10.dtd">
<svg version="1.0" xmlns="http://www.w3.org/2000/svg"
 width="132" height="31" viewBox="0 0 548.000000 102.000000"
 preserveAspectRatio="xMidYMid meet">

<g transform="translate(0.000000,102.000000) scale(0.100000,-0.100000)"
fill="#000000" stroke="none">
<path d="M610 693 c-13 -16 -19 -35 -16 -48 4 -17 -21 -47 -123 -149 -111
-111 -131 -126 -152 -121 -36 9 -79 -27 -79 -66 0 -51 65 -89 106 -61 20 13
36 53 30 76 -4 18 17 44 117 143 l122 121 47 -1 48 -2 172 -172 c157 -157 208
-196 208 -160 0 7 -81 93 -180 192 -146 146 -180 185 -180 207 0 64 -80 91
-120 41z"/>
<path d="M1025 700 c-9 -10 -18 -33 -19 -49 -1 -23 -16 -45 -56 -86 -42 -43
-52 -57 -42 -67 10 -10 23 -1 65 39 49 48 55 51 99 50 47 -2 50 -4 168 -122
104 -104 120 -124 120 -152 0 -86 115 -101 136 -18 11 45 -41 94 -85 80 -11
-3 -56 35 -143 123 -105 106 -126 132 -126 156 1 57 -79 88 -117 46z"/>
<path d="M1830 680 c0 -8 -7 -80 -15 -160 -20 -199 -19 -220 4 -220 16 0 19
11 25 88 4 48 9 109 13 135 l6 49 68 -133 c38 -73 72 -136 76 -140 5 -5 40 52
78 125 39 74 73 132 76 130 4 -2 10 -50 13 -106 9 -133 13 -148 38 -148 19 0
20 5 15 48 -3 26 -11 110 -18 187 -7 77 -15 143 -19 148 -3 4 -44 -65 -90
-153 -46 -88 -88 -156 -92 -152 -5 5 -42 73 -84 153 -78 149 -94 174 -94 149z"/>
<path d="M2350 495 l0 -195 140 0 c133 0 140 1 140 20 0 19 -7 20 -120 20
l-120 0 0 50 0 49 97 3 c84 3 98 6 101 21 3 15 -7 17 -97 17 l-101 0 0 85 0
85 121 0 c109 0 120 2 117 18 -3 15 -19 17 -141 20 l-137 3 0 -196z"/>
<path d="M2748 684 c-5 -4 -8 -92 -8 -196 l0 -188 94 0 c59 0 106 5 128 14
107 45 149 182 87 283 -36 57 -95 84 -201 90 -51 3 -96 2 -100 -3z m215 -61
c45 -26 80 -97 72 -148 -14 -94 -70 -135 -184 -135 l-71 0 0 148 c0 82 3 152
8 156 12 14 142 -2 175 -21z"/>
<path d="M3197 683 c-4 -3 -7 -91 -7 -195 0 -181 1 -188 20 -188 19 0 20 7 20
195 0 156 -3 195 -13 195 -8 0 -17 -3 -20 -7z"/>
<path d="M3336 681 c-7 -11 156 -380 169 -382 16 -2 178 372 166 384 -18 18
-36 -9 -96 -150 -32 -76 -61 -142 -65 -146 -4 -4 -36 59 -71 140 -34 81 -68
151 -73 155 -14 10 -24 10 -30 -1z"/>
<path d="M3842 673 c-12 -22 -162 -365 -162 -370 0 -1 11 -3 24 -3 17 0 26 7
30 25 6 25 7 25 120 25 113 0 114 0 120 -25 5 -18 13 -25 31 -25 25 0 25 1 12
33 -54 127 -151 344 -157 351 -5 4 -13 0 -18 -11z m61 -175 l45 -108 -94 0
-93 0 44 106 c25 59 45 109 45 112 0 13 10 -9 53 -110z"/>
<path d="M4380 480 l0 -180 55 0 55 0 0 60 c0 77 17 79 53 5 15 -31 33 -58 41
-61 7 -3 36 -4 64 -2 l51 3 -38 66 -39 67 24 24 c30 30 41 87 24 128 -21 51
-72 70 -190 70 l-100 0 0 -180z m174 84 c24 -23 4 -54 -34 -54 -28 0 -30 3
-30 35 0 30 3 35 24 35 14 0 32 -7 40 -16z"/>
<path d="M4836 648 c4 -7 29 -45 56 -85 26 -40 48 -75 48 -78 0 -3 -24 -40
-52 -83 -29 -42 -57 -82 -61 -89 -6 -10 6 -13 53 -13 l60 0 32 51 31 51 31
-51 31 -51 63 0 63 0 -61 90 c-33 49 -60 92 -60 95 0 3 22 38 48 78 27 40 52
78 56 85 5 9 -8 12 -53 12 l-61 0 -29 -46 -28 -46 -27 46 -27 46 -60 0 c-45 0
-58 -3 -53 -12z"/>
<path d="M4110 445 c0 -12 14 -15 70 -15 56 0 70 3 70 15 0 12 -14 15 -70 15
-56 0 -70 -3 -70 -15z"/>
</g>
</svg>
